<?xml version="1.0" encoding="utf-8"?>
<svg viewBox="-13.459 1.227 34.263 18.631" xmlns="http://www.w3.org/2000/svg">
  <g>
    <path d="M 174.782 110.977 Q 173.732 112.177 170.807 110.827 Q 167.882 109.477 165.032 106.777 Q 162.182 104.077 160.382 100.552 Q 158.582 97.027 159.782 93.577 Q 165.032 81.427 173.357 71.302 Q 181.682 61.177 191.732 53.152 Q 201.782 45.127 212.882 39.052 Q 223.982 32.977 234.857 29.002 Q 245.732 25.027 255.632 23.002 Q 265.532 20.977 273.332 20.977 Q 274.982 20.977 276.707 21.052 Q 278.432 21.127 279.782 21.277 Q 282.632 21.577 285.332 23.602 Q 288.032 25.627 290.057 28.327 Q 292.082 31.027 293.132 33.952 Q 294.182 36.877 293.732 39.127 Q 293.432 40.777 291.482 44.227 Q 289.532 47.677 286.382 52.477 Q 283.232 57.277 279.032 63.277 Q 274.832 69.277 270.182 76.027 Q 264.932 83.527 259.082 91.852 Q 253.232 100.177 247.607 108.577 Q 241.982 116.977 236.807 125.152 Q 231.632 133.327 227.507 140.677 Q 223.382 148.027 220.682 154.177 Q 217.982 160.327 217.382 164.677 Q 216.932 167.527 218.357 168.952 Q 219.782 170.377 223.232 169.777 Q 230.132 167.977 237.932 162.502 Q 245.732 157.027 253.457 149.452 Q 261.182 141.877 268.457 133.327 Q 275.732 124.777 281.582 116.827 Q 287.882 105.577 294.482 94.552 Q 301.082 83.527 307.382 73.177 Q 315.782 59.527 322.982 47.227 Q 330.182 34.927 334.232 25.927 L 334.832 24.877 Q 336.032 23.527 339.257 24.727 Q 342.482 25.927 345.482 29.002 Q 348.482 32.077 350.132 36.352 Q 351.782 40.627 349.682 45.277 Q 332.282 71.827 320.132 90.802 Q 307.982 109.777 299.957 122.827 Q 291.932 135.877 287.357 143.827 Q 282.782 151.777 280.457 156.352 Q 278.132 160.927 277.457 162.802 Q 276.782 164.677 276.632 165.727 L 276.182 167.227 Q 275.282 170.527 274.832 172.777 Q 274.082 177.427 275.357 181.177 Q 276.632 184.927 281.282 186.127 Q 283.232 186.877 282.707 189.127 Q 282.182 191.377 280.457 193.627 Q 278.732 195.877 276.257 197.527 Q 273.782 199.177 271.832 198.727 Q 267.182 197.377 264.107 194.227 Q 261.032 191.077 259.457 186.727 Q 257.882 182.377 257.882 177.277 Q 257.882 172.177 259.232 167.077 Q 259.832 164.827 260.582 162.577 Q 261.332 160.327 262.082 157.927 Q 257.132 162.427 252.032 166.627 Q 246.932 170.827 241.832 174.277 Q 236.732 177.727 231.632 180.277 Q 226.532 182.827 221.732 183.877 L 221.882 183.727 Q 219.482 184.477 217.607 184.702 Q 215.732 184.927 214.082 184.927 Q 208.682 184.927 205.082 182.827 Q 201.482 180.727 199.457 177.202 Q 197.432 173.677 197.057 168.952 Q 196.682 164.227 197.582 158.977 Q 197.882 156.577 198.407 154.552 Q 198.932 152.527 199.532 150.427 Q 203.582 140.077 211.382 126.877 Q 219.182 113.677 229.307 99.052 Q 239.432 84.427 251.207 69.052 Q 262.982 53.677 274.832 38.977 Q 274.382 39.277 273.557 39.577 Q 272.732 39.877 272.282 39.877 Q 261.482 40.927 250.382 44.827 Q 239.282 48.727 228.782 54.502 Q 218.282 60.277 208.982 67.327 Q 199.682 74.377 192.557 81.652 Q 185.432 88.927 181.007 95.977 Q 176.582 103.027 175.832 108.727 Z" 
    transform="matrix(0.758692, 0, 0, 1, -113.98455, -40.750179)" 
    style="fill: currentColor; paint-order: fill; stroke-linecap: round; stroke-miterlimit: 1; white-space: pre;"/>
    <path d="M 334.514 188.077 L 338.864 191.077 Q 343.514 194.077 348.314 197.002 Q 353.114 199.927 358.964 202.477 L 358.814 202.477 Q 360.164 202.927 359.339 205.552 Q 358.514 208.177 356.264 211.252 Q 354.014 214.327 350.489 216.727 Q 346.964 219.127 342.914 219.127 Q 339.464 219.127 336.764 217.177 L 328.514 210.727 Q 326.714 209.077 324.914 207.727 Q 323.114 206.377 321.464 205.177 Q 316.064 211.777 310.514 217.252 Q 304.964 222.727 298.739 226.777 Q 292.514 230.827 285.539 233.152 Q 278.564 235.477 270.464 235.627 Q 265.664 235.627 261.014 234.652 Q 256.364 233.677 252.839 231.127 Q 249.314 228.577 247.439 224.152 Q 245.564 219.727 246.464 212.977 Q 247.364 205.027 251.864 198.127 Q 256.364 191.227 263.114 186.202 Q 269.864 181.177 278.114 178.402 Q 286.364 175.627 294.614 175.627 Q 298.814 175.627 302.264 175.927 Q 305.714 176.227 308.639 176.752 Q 311.564 177.277 314.189 178.177 Q 316.814 179.077 319.364 180.127 L 327.164 166.927 L 327.764 165.877 Q 324.014 168.277 320.414 169.702 Q 316.814 171.127 313.364 171.277 Q 307.664 170.677 304.289 168.052 Q 300.914 165.427 299.264 161.827 Q 297.614 158.227 297.389 154.102 Q 297.164 149.977 297.614 146.377 Q 298.214 143.077 298.964 140.977 Q 300.464 135.427 303.914 128.827 Q 307.364 122.227 312.164 115.627 Q 316.964 109.027 322.739 102.877 Q 328.514 96.727 334.964 91.927 Q 341.414 87.127 348.089 84.277 Q 354.764 81.427 361.364 81.427 Q 363.314 81.427 365.114 81.727 Q 366.914 82.027 369.014 82.627 Q 372.614 83.827 374.489 86.452 Q 376.364 89.077 377.039 92.602 Q 377.714 96.127 377.489 100.102 Q 377.264 104.077 376.364 107.977 Q 376.214 108.727 375.314 109.252 Q 374.414 109.777 373.214 110.077 Q 372.014 110.377 370.664 110.377 Q 369.314 110.377 368.264 110.077 Q 370.514 111.277 372.539 113.152 Q 374.564 115.027 375.914 117.127 Q 377.264 119.227 377.639 121.552 Q 378.014 123.877 376.964 125.977 Z M 325.664 152.527 Q 327.614 152.077 330.614 149.677 Q 333.614 147.277 336.989 143.977 Q 340.364 140.677 343.814 136.852 Q 347.264 133.027 349.964 129.577 Q 352.964 124.327 355.664 118.927 Q 358.364 113.527 359.564 108.577 Q 362.264 107.527 366.314 109.177 Q 365.864 108.427 366.014 107.677 Q 366.164 107.227 366.089 106.627 Q 366.014 106.027 366.164 105.427 Q 366.314 103.927 366.314 102.277 Q 366.314 100.627 365.864 99.202 Q 365.414 97.777 364.364 96.877 Q 363.314 95.977 361.514 95.827 Q 355.964 95.677 350.114 99.802 Q 344.264 103.927 338.864 110.227 Q 333.464 116.527 329.039 123.727 Q 324.614 130.927 322.064 136.777 Q 321.314 138.427 320.564 140.902 Q 319.814 143.377 319.514 145.777 Q 319.214 147.427 319.214 148.927 Q 319.214 150.427 319.889 151.477 Q 320.564 152.527 321.914 152.827 Q 323.264 153.127 325.664 152.527 Z M 279.914 222.427 Q 287.564 219.127 294.614 212.302 Q 301.664 205.477 308.114 196.927 Q 304.214 195.277 300.164 194.302 Q 296.114 193.327 291.764 193.177 Q 286.814 193.027 281.039 194.152 Q 275.264 195.277 270.239 197.677 Q 265.214 200.077 261.614 203.677 Q 258.014 207.277 257.414 212.227 Q 256.964 215.527 257.864 217.777 Q 258.764 220.027 260.639 221.452 Q 262.514 222.877 265.064 223.552 Q 267.614 224.227 270.314 224.227 Q 272.714 224.227 275.264 223.702 Q 277.814 223.177 279.914 222.427 Z"
     transform="matrix(0.758692, 0, 0, 1, -113.98455, -40.750179)" 
     style="fill: currentColor; paint-order: fill; stroke-linecap: round; stroke-miterlimit: 1; white-space: pre;"/>
    <path d="M 438.771 142.177 Q 434.571 147.277 429.471 152.602 Q 424.371 157.927 418.671 162.277 Q 412.971 166.627 406.821 169.327 Q 400.671 172.027 394.671 171.727 Q 391.221 171.577 388.821 170.077 Q 386.421 168.577 385.146 166.102 Q 383.871 163.627 383.571 160.477 Q 383.271 157.327 383.871 153.877 Q 384.921 148.927 386.871 144.577 Q 388.821 140.227 391.446 136.327 Q 394.071 132.427 397.071 128.677 Q 400.071 124.927 403.371 121.027 L 406.971 116.827 L 406.971 116.977 L 411.321 111.877 Q 412.521 110.227 414.546 108.877 Q 416.571 107.527 420.921 106.327 Q 418.821 106.777 417.471 107.002 Q 416.121 107.227 415.071 107.527 Q 413.121 107.977 411.171 108.427 Q 409.221 108.877 406.671 108.727 L 405.171 108.727 Q 401.121 113.827 397.521 118.702 Q 393.921 123.577 390.771 127.927 L 390.771 127.777 Q 390.171 128.677 388.671 128.227 Q 387.171 127.777 385.821 126.652 Q 384.471 125.527 383.646 124.102 Q 382.821 122.677 383.721 121.627 L 383.721 121.777 Q 388.071 116.077 391.071 111.802 Q 394.071 107.527 396.471 104.227 Q 395.271 101.677 396.021 98.227 Q 396.771 93.577 399.321 89.977 Q 401.871 86.377 405.321 81.577 Q 406.671 79.627 408.246 77.227 Q 409.821 74.827 411.471 71.377 Q 413.571 72.577 415.671 73.852 Q 417.771 75.127 419.346 76.852 Q 420.921 78.577 421.671 80.827 Q 422.421 83.077 421.971 85.927 Q 421.671 87.277 421.221 88.852 Q 420.771 90.427 419.571 92.527 L 413.271 99.277 Q 412.521 100.177 414.021 99.502 Q 415.521 98.827 418.371 97.177 Q 421.221 95.527 424.821 93.277 Q 428.421 91.027 431.871 88.777 Q 435.321 86.527 437.946 84.577 Q 440.571 82.627 441.621 81.577 Q 442.521 81.577 443.871 82.477 Q 445.221 83.377 446.496 84.502 Q 447.771 85.627 448.746 86.602 Q 449.721 87.577 449.871 87.877 Q 451.071 90.427 449.871 93.952 Q 448.671 97.477 445.896 101.677 Q 443.121 105.877 439.146 110.602 Q 435.171 115.327 430.821 120.277 Q 428.271 122.977 425.871 125.677 Q 423.471 128.377 421.071 131.227 Q 419.271 133.327 417.021 136.027 Q 414.771 138.727 412.671 141.502 Q 410.571 144.277 409.071 146.977 Q 407.571 149.677 407.271 151.477 Q 406.971 152.377 408.771 152.377 Q 410.421 152.527 413.121 151.252 Q 415.821 149.977 418.971 147.652 Q 422.121 145.327 425.421 142.177 Q 428.721 139.027 431.571 135.277 L 431.421 135.277 Q 435.321 130.477 438.771 125.827 Q 442.221 121.177 444.321 117.877 Q 445.071 117.127 446.571 117.652 Q 448.071 118.177 449.421 119.377 Q 450.771 120.577 451.521 122.152 Q 452.271 123.727 451.371 124.777 L 451.521 124.477 L 446.121 131.977 L 439.071 142.027 Z" 
    transform="matrix(0.758692, 0, 0, 1, -113.98455, -40.750179)" 
    style="fill: currentColor; paint-order: fill; stroke-linecap: round; stroke-miterlimit: 1; white-space: pre;"/>
    <path d="M 509.271 107.977 Q 509.121 108.877 508.146 109.402 Q 507.171 109.927 505.821 110.152 Q 504.471 110.377 503.046 110.377 Q 501.621 110.377 500.571 109.927 Q 502.671 111.277 504.471 113.077 Q 506.271 114.877 507.471 117.052 Q 508.671 119.227 509.046 121.477 Q 509.421 123.727 508.521 125.827 Q 507.921 126.877 507.171 128.152 Q 506.421 129.427 505.671 130.777 Q 504.021 133.627 502.296 136.927 Q 500.571 140.227 499.071 143.377 Q 497.571 146.527 496.446 149.302 Q 495.321 152.077 495.021 154.027 Q 495.021 154.327 494.796 154.477 Q 494.571 154.627 494.421 154.777 L 495.471 154.777 Q 499.971 153.277 504.171 149.827 Q 508.371 146.377 512.346 141.952 Q 516.321 137.527 519.996 132.502 Q 523.671 127.477 526.971 122.827 Q 528.171 121.627 528.771 120.727 Q 529.371 119.827 529.971 118.777 Q 530.571 118.027 532.221 118.402 Q 533.871 118.777 535.371 119.827 Q 536.871 120.877 537.771 122.302 Q 538.671 123.727 537.771 124.777 L 533.421 130.777 L 533.421 130.927 Q 526.971 139.777 519.996 148.402 Q 513.021 157.027 504.471 163.927 Q 503.121 165.127 501.096 166.552 Q 499.071 167.977 496.596 169.252 Q 494.121 170.527 491.271 171.352 Q 488.421 172.177 485.421 172.027 Q 478.221 171.427 475.296 166.927 Q 472.371 162.427 473.121 155.677 Q 466.371 161.977 459.471 166.552 Q 452.571 171.127 446.271 171.277 Q 440.571 170.677 437.196 168.052 Q 433.821 165.427 432.171 161.827 Q 430.521 158.227 430.296 154.102 Q 430.071 149.977 430.521 146.377 Q 431.121 143.077 431.871 140.977 Q 433.371 135.427 436.821 128.827 Q 440.271 122.227 445.071 115.627 Q 449.871 109.027 455.646 102.877 Q 461.421 96.727 467.871 91.927 Q 474.321 87.127 480.996 84.277 Q 487.671 81.427 494.271 81.427 Q 496.221 81.427 498.021 81.727 Q 499.821 82.027 501.921 82.627 Q 505.521 83.827 507.396 86.452 Q 509.271 89.077 509.946 92.602 Q 510.621 96.127 510.396 100.102 Q 510.171 104.077 509.271 107.977 Z M 491.721 107.977 Q 493.221 107.227 495.246 107.677 Q 497.271 108.127 499.371 109.327 Q 498.621 108.577 498.921 107.677 Q 499.071 107.227 498.996 106.627 Q 498.921 106.027 499.071 105.427 Q 499.221 103.927 499.221 102.277 Q 499.221 100.627 498.771 99.202 Q 498.321 97.777 497.271 96.877 Q 496.221 95.977 494.421 95.827 Q 488.871 95.677 483.021 99.802 Q 477.171 103.927 471.771 110.227 Q 466.371 116.527 461.946 123.727 Q 457.521 130.927 454.971 136.777 Q 454.221 138.427 453.471 140.902 Q 452.721 143.377 452.421 145.777 Q 452.121 147.427 452.121 148.927 Q 452.121 150.427 452.796 151.477 Q 453.471 152.527 454.821 152.827 Q 456.171 153.127 458.571 152.527 Q 460.821 151.927 464.271 149.077 Q 467.721 146.227 471.546 142.402 Q 475.371 138.577 479.046 134.227 Q 482.721 129.877 485.271 126.427 Q 487.521 121.927 489.396 117.652 Q 491.271 113.377 492.021 110.377 Z" 
    transform="matrix(0.758692, 0, 0, 1, -113.98455, -40.750179)" 
    style="fill: currentColor; paint-order: fill; stroke-linecap: round; stroke-miterlimit: 1; white-space: pre;"/>
    <path d="M 640.079 139.027 Q 637.229 142.927 632.579 148.477 Q 627.929 154.027 622.454 159.277 Q 616.979 164.527 611.129 168.202 Q 605.279 171.877 600.179 171.877 Q 597.029 171.877 594.179 170.752 Q 591.329 169.627 589.529 167.227 Q 587.729 164.827 587.054 161.002 Q 586.379 157.177 587.429 151.927 Q 588.479 147.427 590.054 143.077 Q 591.629 138.727 593.954 133.927 Q 596.279 129.127 599.279 123.502 Q 602.279 117.877 606.179 110.827 Q 607.979 107.977 609.179 105.277 Q 610.379 102.577 610.679 100.927 Q 610.379 101.227 608.729 102.727 Q 607.079 104.227 603.479 107.077 Q 597.029 112.327 591.704 117.502 Q 586.379 122.677 580.979 128.977 Q 579.479 131.527 578.129 134.227 Q 576.779 136.927 575.429 139.777 L 575.429 139.477 Q 572.129 146.377 569.579 153.352 Q 567.029 160.327 565.379 167.677 Q 564.929 169.477 562.379 169.327 Q 559.829 169.177 556.979 167.902 Q 554.129 166.627 551.804 164.602 Q 549.479 162.577 549.629 160.627 Q 552.329 147.877 557.654 136.027 Q 562.979 124.177 569.279 112.327 Q 571.229 108.427 572.804 105.427 Q 574.379 102.427 575.129 101.527 Q 573.179 102.427 567.179 107.077 Q 560.879 112.327 555.554 117.577 Q 550.229 122.827 544.679 129.127 Q 539.579 138.427 535.529 148.102 Q 531.479 157.777 528.929 167.677 Q 528.329 169.327 525.779 169.177 Q 523.229 169.027 520.454 167.752 Q 517.679 166.477 515.504 164.527 Q 513.329 162.577 513.479 160.627 Q 514.829 153.877 517.004 147.502 Q 519.179 141.127 521.879 134.902 Q 524.579 128.677 527.654 122.602 Q 530.729 116.527 533.879 110.377 Q 537.479 103.177 540.929 96.352 Q 544.379 89.527 547.079 83.227 Q 548.879 82.327 551.504 83.152 Q 554.129 83.977 556.529 85.777 Q 558.929 87.577 560.729 90.202 Q 562.529 92.827 562.979 95.677 Q 569.429 90.277 576.029 86.527 Q 582.629 82.777 589.229 82.327 Q 590.879 82.327 592.604 83.527 Q 594.329 84.727 595.754 86.677 Q 597.179 88.627 598.079 91.027 Q 598.979 93.427 599.129 95.677 Q 605.429 90.277 612.104 86.527 Q 618.779 82.777 625.529 82.327 Q 627.479 82.327 629.579 84.202 Q 631.679 86.077 633.179 88.852 Q 634.679 91.627 635.129 94.777 Q 635.579 97.927 634.229 100.327 L 634.229 100.177 Q 630.329 108.427 626.804 114.727 Q 623.279 121.027 620.279 126.127 Q 617.879 130.327 615.929 133.927 Q 613.979 137.527 612.329 140.977 Q 610.679 144.427 609.404 148.027 Q 608.129 151.627 607.079 155.677 L 607.829 154.627 Q 612.629 152.377 619.154 146.977 Q 625.679 141.577 632.879 132.277 Q 634.979 129.727 636.854 126.952 Q 638.729 124.177 640.829 121.177 L 643.229 117.877 Q 644.879 115.927 646.904 115.777 Q 648.929 115.627 650.354 116.752 Q 651.779 117.877 652.079 119.902 Q 652.379 121.927 650.579 124.477 Q 648.029 128.077 645.404 131.677 Q 642.779 135.277 640.229 138.877 Z"
    transform="matrix(0.758692, 0, 0, 1, -113.98455, -40.750179)" 
    style="fill: currentColor; paint-order: fill; stroke-linecap: round; stroke-miterlimit: 1; white-space: pre;"/>
  </g>
</svg>